<svg width="24" height="24" viewBox="0 0 24 24" fill="none" xmlns="http://www.w3.org/2000/svg">
    <path fill-rule="evenodd" clip-rule="evenodd" d="M6 4.75C6 3.23079 7.23079 2 8.75 2H15.207C15.9372 2 16.6355 2.29021 17.1506 2.80396L17.1513 2.80467L19.6943 5.34767L19.164 5.878L19.695 5.34838C20.2096 5.8643 20.5 6.56249 20.5 7.293V15.464C20.5 16.9832 19.2692 18.214 17.75 18.214H8.75C7.23079 18.214 6 16.9832 6 15.464V4.75ZM18.6333 6.40794C18.6332 6.40783 18.6331 6.40773 18.633 6.40762L16.0914 3.86604C16.0913 3.86592 16.0911 3.8658 16.091 3.86569C15.8562 3.63166 15.5386 3.5 15.207 3.5H8.75C8.05921 3.5 7.5 4.05921 7.5 4.75V15.464C7.5 16.1548 8.05921 16.714 8.75 16.714H17.75C18.4408 16.714 19 16.1548 19 15.464V7.293C19 6.96166 18.8685 6.64398 18.6333 6.40794Z" fill="#7F7F7F"/>
    <path fill-rule="evenodd" clip-rule="evenodd" d="M14.75 2C15.1642 2 15.5 2.33579 15.5 2.75V6.75C15.5 6.88779 15.6122 7 15.75 7H19.75C20.1642 7 20.5 7.33579 20.5 7.75C20.5 8.16421 20.1642 8.5 19.75 8.5H15.75C14.7838 8.5 14 7.71621 14 6.75V2.75C14 2.33579 14.3358 2 14.75 2Z" fill="#7F7F7F"/>
    <path fill-rule="evenodd" clip-rule="evenodd" d="M5.75 6.5C5.05921 6.5 4.5 7.05921 4.5 7.75V18.75C4.5 19.4408 5.05921 20 5.75 20H14.75C15.4408 20 16 19.4408 16 18.75V17.464C16 17.0498 16.3358 16.714 16.75 16.714C17.1642 16.714 17.5 17.0498 17.5 17.464V18.75C17.5 20.2692 16.2692 21.5 14.75 21.5H5.75C4.23079 21.5 3 20.2692 3 18.75V7.75C3 6.23079 4.23079 5 5.75 5H6.75C7.16421 5 7.5 5.33579 7.5 5.75C7.5 6.16421 7.16421 6.5 6.75 6.5H5.75Z" fill="#7F7F7F"/>
</svg>
