<svg width="24" height="24" viewBox="0 0 24 24" fill="none" xmlns="http://www.w3.org/2000/svg">
    <path fill-rule="evenodd" clip-rule="evenodd" d="M20.7153 12.7849C20.3368 12.4058 19.7219 12.4057 19.3423 12.7853L13.5735 18.5581C13.5262 18.6054 13.5 18.6688 13.5 18.735V20H14.765C14.8317 20 14.8948 19.9736 14.9407 19.9277L20.7149 14.1584C21.0945 13.7793 21.0943 13.164 20.7153 12.7849ZM21.7767 11.725C20.8112 10.7581 19.2461 10.7603 18.2817 11.7247L12.5127 17.4977C12.184 17.8263 12 18.2711 12 18.735V20.75C12 21.1642 12.3358 21.5 12.75 21.5H14.765C15.2282 21.5 15.673 21.3165 16.0011 20.9885C16.001 20.9886 16.0012 20.9885 16.0011 20.9885L21.7749 15.2197C22.7412 14.2549 22.7413 12.69 21.7767 11.725Z" fill="#7F7F7F"/>
    <path fill-rule="evenodd" clip-rule="evenodd" d="M6 8.75C6 8.33579 6.33579 8 6.75 8H14.75C15.1642 8 15.5 8.33579 15.5 8.75C15.5 9.16421 15.1642 9.5 14.75 9.5H6.75C6.33579 9.5 6 9.16421 6 8.75Z" fill="#7F7F7F"/>
    <path fill-rule="evenodd" clip-rule="evenodd" d="M6 12.75C6 12.3358 6.33579 12 6.75 12H11.75C12.1642 12 12.5 12.3358 12.5 12.75C12.5 13.1642 12.1642 13.5 11.75 13.5H6.75C6.33579 13.5 6 13.1642 6 12.75Z" fill="#7F7F7F"/>
    <path fill-rule="evenodd" clip-rule="evenodd" d="M6 16.75C6 16.3358 6.33579 16 6.75 16H9.75C10.1642 16 10.5 16.3358 10.5 16.75C10.5 17.1642 10.1642 17.5 9.75 17.5H6.75C6.33579 17.5 6 17.1642 6 16.75Z" fill="#7F7F7F"/>
    <path fill-rule="evenodd" clip-rule="evenodd" d="M16.9997 12.9997C17.2926 12.7068 17.7675 12.7068 18.0604 12.9997L20.5004 15.4397C20.7933 15.7326 20.7933 16.2074 20.5004 16.5003C20.2075 16.7932 19.7326 16.7932 19.4397 16.5003L16.9997 14.0603C16.7068 13.7674 16.7068 13.2926 16.9997 12.9997Z" fill="#7F7F7F"/>
    <path fill-rule="evenodd" clip-rule="evenodd" d="M2 5.75C2 4.23079 3.23079 3 4.75 3H16.75C18.2692 3 19.5 4.23079 19.5 5.75V8.75C19.5 9.16421 19.1642 9.5 18.75 9.5C18.3358 9.5 18 9.16421 18 8.75V5.75C18 5.05921 17.4408 4.5 16.75 4.5H4.75C4.05921 4.5 3.5 5.05921 3.5 5.75V18.75C3.5 19.4408 4.05921 20 4.75 20H8.75C9.16421 20 9.5 20.3358 9.5 20.75C9.5 21.1642 9.16421 21.5 8.75 21.5H4.75C3.23079 21.5 2 20.2692 2 18.75V5.75Z" fill="#7F7F7F"/>
    <path fill-rule="evenodd" clip-rule="evenodd" d="M14.75 2C15.1642 2 15.5 2.33579 15.5 2.75V4.75C15.5 5.16421 15.1642 5.5 14.75 5.5C14.3358 5.5 14 5.16421 14 4.75V2.75C14 2.33579 14.3358 2 14.75 2Z" fill="#7F7F7F"/>
    <path fill-rule="evenodd" clip-rule="evenodd" d="M10.75 2C11.1642 2 11.5 2.33579 11.5 2.75V4.75C11.5 5.16421 11.1642 5.5 10.75 5.5C10.3358 5.5 10 5.16421 10 4.75V2.75C10 2.33579 10.3358 2 10.75 2Z" fill="#7F7F7F"/>
    <path fill-rule="evenodd" clip-rule="evenodd" d="M6.75 2C7.16421 2 7.5 2.33579 7.5 2.75V4.75C7.5 5.16421 7.16421 5.5 6.75 5.5C6.33579 5.5 6 5.16421 6 4.75V2.75C6 2.33579 6.33579 2 6.75 2Z" fill="#7F7F7F"/>
</svg>
