<svg width="24" height="24" viewBox="0 0 24 24" fill="none" xmlns="http://www.w3.org/2000/svg">
    <path fill-rule="evenodd" clip-rule="evenodd" d="M6 5.25C6.41421 5.25 6.75 5.58579 6.75 6V18.75C6.75 19.5871 7.41049 20.25 8.231 20.25H15.731C16.5672 20.25 17.25 19.5704 17.25 18.75V6C17.25 5.58579 17.5858 5.25 18 5.25C18.4142 5.25 18.75 5.58579 18.75 6V18.75C18.75 20.4156 17.3788 21.75 15.731 21.75H8.231C6.56551 21.75 5.25 20.3989 5.25 18.75V6C5.25 5.58579 5.58579 5.25 6 5.25Z" fill="#FF4361"/>
    <path fill-rule="evenodd" clip-rule="evenodd" d="M3.75 6C3.75 5.58579 4.08579 5.25 4.5 5.25H19.5C19.9142 5.25 20.25 5.58579 20.25 6C20.25 6.41421 19.9142 6.75 19.5 6.75H4.5C4.08579 6.75 3.75 6.41421 3.75 6Z" fill="#FF4361"/>
    <path fill-rule="evenodd" clip-rule="evenodd" d="M9.25 3C9.25 2.58579 9.58579 2.25 10 2.25H14C14.4142 2.25 14.75 2.58579 14.75 3C14.75 3.41421 14.4142 3.75 14 3.75H10C9.58579 3.75 9.25 3.41421 9.25 3Z" fill="#FF4361"/>
    <path fill-rule="evenodd" clip-rule="evenodd" d="M14 9.25C14.4142 9.25 14.75 9.58579 14.75 10V17C14.75 17.4142 14.4142 17.75 14 17.75C13.5858 17.75 13.25 17.4142 13.25 17V10C13.25 9.58579 13.5858 9.25 14 9.25Z" fill="#FF4361"/>
    <path fill-rule="evenodd" clip-rule="evenodd" d="M10 9.25C10.4142 9.25 10.75 9.58579 10.75 10V17C10.75 17.4142 10.4142 17.75 10 17.75C9.58579 17.75 9.25 17.4142 9.25 17V10C9.25 9.58579 9.58579 9.25 10 9.25Z" fill="#FF4361"/>
</svg>
