<svg width="24" height="24" viewBox="0 0 24 24" fill="none" xmlns="http://www.w3.org/2000/svg">
    <path fill-rule="evenodd" clip-rule="evenodd" d="M12 2.25C12.4142 2.25 12.75 2.58579 12.75 3V17C12.75 17.4142 12.4142 17.75 12 17.75C11.5858 17.75 11.25 17.4142 11.25 17V3C11.25 2.58579 11.5858 2.25 12 2.25Z" fill="#7F7F7F"/>
    <path fill-rule="evenodd" clip-rule="evenodd" d="M8.46967 13.4697C8.76256 13.1768 9.23744 13.1768 9.53033 13.4697L12 15.9393L14.4697 13.4697C14.7626 13.1768 15.2374 13.1768 15.5303 13.4697C15.8232 13.7626 15.8232 14.2374 15.5303 14.5303L12.5303 17.5303C12.2374 17.8232 11.7626 17.8232 11.4697 17.5303L8.46967 14.5303C8.17678 14.2374 8.17678 13.7626 8.46967 13.4697Z" fill="#7F7F7F"/>
    <path fill-rule="evenodd" clip-rule="evenodd" d="M2.25 12C2.25 10.4808 3.48079 9.25 5 9.25H8C8.41421 9.25 8.75 9.58579 8.75 10C8.75 10.4142 8.41421 10.75 8 10.75H5C4.30921 10.75 3.75 11.3092 3.75 12V19C3.75 19.6908 4.30921 20.25 5 20.25H19C19.6908 20.25 20.25 19.6908 20.25 19V12C20.25 11.3092 19.6908 10.75 19 10.75H16C15.5858 10.75 15.25 10.4142 15.25 10C15.25 9.58579 15.5858 9.25 16 9.25H19C20.5192 9.25 21.75 10.4808 21.75 12V19C21.75 20.5192 20.5192 21.75 19 21.75H5C3.48079 21.75 2.25 20.5192 2.25 19V12Z" fill="#7F7F7F"/>
</svg>
